<mxfile host="65bd71144e">
    <diagram id="ZH9tlxoBz2W2_fqLBUeT" name="Page-1">
        <mxGraphModel dx="1454" dy="827" grid="1" gridSize="10" guides="1" tooltips="1" connect="1" arrows="1" fold="1" page="1" pageScale="1" pageWidth="1100" pageHeight="850" math="0" shadow="0">
            <root>
                <mxCell id="0"/>
                <mxCell id="1" parent="0"/>
                <mxCell id="2" value="&lt;h3&gt;Graf sa slike predstaviti matricom susedstva i korišćenjem Dijsktrijinog algoritma odrediti najkraću putanju od čvora 0 do čvora 5,&lt;/h3&gt;" style="text;html=1;align=center;verticalAlign=middle;resizable=0;points=[];autosize=1;strokeColor=none;fillColor=none;" parent="1" vertex="1">
                    <mxGeometry x="105" width="890" height="60" as="geometry"/>
                </mxCell>
            </root>
        </mxGraphModel>
    </diagram>
</mxfile>